<?xml version="1.0" standalone="yes"?>
<!DOCTYPE svg PUBLIC "-//W3C//DTD SVG 1.1//EN"
 "http://www.w3.org/Graphics/SVG/1.1/DTD/svg11.dtd">
<svg xmlns="http://www.w3.org/2000/svg" version="1.1"
  width="100%" height="100%" viewBox="0 0 1024 768"
  style="fill: none; font-family: Helvetica;
 font: Helvetica;
">

<!-- Creator: NGspice -->

<rect x="0" y="0" width="1024" height="768" fill="black" stroke="none"/>
<text stroke="none" fill="white" font-size="16" x="358" y="752">
time
</text>
<text stroke="none" fill="white" font-size="16" x="10" y="16">
tran20: * vreg *
</text>
<path stroke="white" d="M80 720l0 -670"/>
<text stroke="none" fill="white" font-size="16" x="65" y="728">
0.0
</text>
<path stroke="white" stroke-dasharray="1,2" d="M166 720l0 -670"/>
<text stroke="none" fill="white" font-size="16" x="151" y="728">
2.0
</text>
<path stroke="white" stroke-dasharray="1,2" d="M252 720l0 -670"/>
<text stroke="none" fill="white" font-size="16" x="237" y="728">
4.0
</text>
<path stroke="white" stroke-dasharray="1,2" d="M338 720l0 -670"/>
<text stroke="none" fill="white" font-size="16" x="323" y="728">
6.0
</text>
<path stroke="white" stroke-dasharray="1,2" d="M424 720l0 -670"/>
<text stroke="none" fill="white" font-size="16" x="409" y="728">
8.0
</text>
<path stroke="white" stroke-dasharray="1,2" d="M510 720l0 -670"/>
<text stroke="none" fill="white" font-size="16" x="490" y="728">
10.0
</text>
<path stroke="white" stroke-dasharray="1,2" d="M596 720l0 -670"/>
<text stroke="none" fill="white" font-size="16" x="576" y="728">
12.0
</text>
<path stroke="white" stroke-dasharray="1,2" d="M682 720l0 -670"/>
<text stroke="none" fill="white" font-size="16" x="662" y="728">
14.0
</text>
<path stroke="white" stroke-dasharray="1,2" d="M768 720l0 -670"/>
<text stroke="none" fill="white" font-size="16" x="748" y="728">
16.0
</text>
<path stroke="white" stroke-dasharray="1,2" d="M854 720l0 -670"/>
<text stroke="none" fill="white" font-size="16" x="834" y="728">
18.0
</text>
<path stroke="white" stroke-dasharray="1,2" d="M940 720l0 -670"/>
<text stroke="none" fill="white" font-size="16" x="920" y="728">
20.0
</text>
<text stroke="none" fill="white" font-size="16" x="614" y="752">
ms
</text>
<path stroke="white" stroke-dasharray="1,2" d="M80 720l860 0"/>
<text stroke="none" fill="white" font-size="16" x="18" y="728">
3.3452
</text>
<path stroke="white" stroke-dasharray="1,2" d="M80 653l860 0"/>
<text stroke="none" fill="white" font-size="16" x="18" y="661">
3.3454
</text>
<path stroke="white" stroke-dasharray="1,2" d="M80 586l860 0"/>
<text stroke="none" fill="white" font-size="16" x="18" y="594">
3.3456
</text>
<path stroke="white" stroke-dasharray="1,2" d="M80 519l860 0"/>
<text stroke="none" fill="white" font-size="16" x="18" y="527">
3.3458
</text>
<path stroke="white" stroke-dasharray="1,2" d="M80 452l860 0"/>
<text stroke="none" fill="white" font-size="16" x="18" y="460">
3.3460
</text>
<path stroke="white" stroke-dasharray="1,2" d="M80 385l860 0"/>
<text stroke="none" fill="white" font-size="16" x="18" y="393">
3.3462
</text>
<path stroke="white" stroke-dasharray="1,2" d="M80 318l860 0"/>
<text stroke="none" fill="white" font-size="16" x="18" y="326">
3.3464
</text>
<path stroke="white" stroke-dasharray="1,2" d="M80 251l860 0"/>
<text stroke="none" fill="white" font-size="16" x="18" y="259">
3.3466
</text>
<path stroke="white" stroke-dasharray="1,2" d="M80 184l860 0"/>
<text stroke="none" fill="white" font-size="16" x="18" y="192">
3.3468
</text>
<path stroke="white" stroke-dasharray="1,2" d="M80 117l860 0"/>
<text stroke="none" fill="white" font-size="16" x="18" y="125">
3.3470
</text>
<path stroke="white" stroke-dasharray="1,2" d="M80 50l860 0"/>
<text stroke="none" fill="white" font-size="16" x="18" y="58">
3.3472
</text>
<text stroke="none" fill="white" font-size="16" x="10" y="32">
V
</text>
<path stroke="red" d="M430 23l43 0"/>
<text stroke="none" fill="white" font-size="16" x="483" y="32">
out
</text>
<path stroke="red" d="M80 665l0 -614M80 665l1 -121 0 -493 2 113 3 501 4 -1 4 2 843 0 3 -308"/>
<path stroke="blue" d="M80 23l43 0"/>
<text stroke="none" fill="white" font-size="16" x="133" y="32">
out
</text>
<path stroke="blue" d="M80 358l0 -4M80 355l1 8 0 -4 2 -30 3 19 4 104 4 69 4 48 5 32 4 21 4 14 5 10 4 6 4 5 5 3 4 2 8 2 5 0 4 1 22 0 4 1 761 0 3 -39"/>
<path stroke="#FFA500" d="M430 39l43 0"/>
<text stroke="none" fill="white" font-size="16" x="483" y="48">
out
</text>
<path stroke="#FFA500" d="M80 358l0 -2M80 357l1 3 0 -2 2 -15 3 8 4 56 4 46 4 38 5 32 4 25 4 21 5 18 4 14 4 11 9 18 4 6 4 5 5 5 8 6 5 3 4 2 4 1 5 2 8 2 4 0 5 1 4 0 4 1 9 0 4 1 52 0 4 1 671 0 3 -21"/>
<path stroke="green" d="M80 39l43 0"/>
<text stroke="none" fill="white" font-size="16" x="133" y="48">
out
</text>
<path stroke="green" d="M80 358l0 -1 1 3 0 -2 2 -10 3 5 4 38 4 34 4 30 5 26 4 22 4 20 5 18 4 15 4 14 5 12 4 10 4 9 4 8 5 7 4 6 4 5 13 13 5 3 4 3 8 4 5 2 4 2 4 1 5 2 8 2 5 1 4 0 8 2 9 0 4 1 9 0 4 1 17 0 5 1 77 0 4 1 581 0 3 -14"/>
<path stroke="#FFC0C5" d="M430 55l43 0"/>
<text stroke="none" fill="white" font-size="16" x="483" y="64">
out
</text>
<path stroke="#FFC0C5" d="M80 358l0 -1 1 2 0 -1 2 -8 3 4 4 29 4 27 4 24 5 21 4 20 4 18 5 16 4 15 4 13 5 12 4 11 4 10 4 9 5 8 4 8 4 6 5 6 4 6 4 5 5 4 8 8 4 3 5 3 8 6 5 2 8 4 5 1 4 2 4 1 4 2 5 1 8 2 5 0 8 2 5 1 4 0 4 1 4 0 5 1 8 0 5 1 13 0 4 1"/>
<path stroke="#FFC0C5" d="M305 664l26 0 4 1 107 0 5 1 490 0 3 -11"/>
<path stroke="#A52A2A" d="M80 55l43 0"/>
<text stroke="none" fill="white" font-size="16" x="133" y="64">
out
</text>
<path stroke="#A52A2A" d="M80 358l0 -1 1 2 0 -1 2 -6 3 3 4 23 4 22 4 20 5 19 4 17 4 16 5 15 8 26 5 11 4 11 4 10 4 9 5 9 4 7 4 8 5 6 8 12 5 5 8 10 4 4 5 4 4 3 4 4 5 3 4 2 4 3 5 2 4 3 8 4 5 1 4 2 4 1 5 2 8 2 5 1 12 3 5 1 4 1 4 0 5 1 4 1 4 0 5 1"/>
<path stroke="#A52A2A" d="M301 660l8 0 4 1 5 0 4 1 13 0 4 1 17 0 5 1 30 0 4 1 138 0 4 1 400 0 3 -9"/>
<path stroke="#F0E68C" d="M430 71l43 0"/>
<text stroke="none" fill="white" font-size="16" x="483" y="80">
out
</text>
<path stroke="#F0E68C" d="M80 358l0 -1M80 358l1 1 0 -1 2 -5 3 2 4 20 8 36 5 16 4 15 4 14 5 14 8 24 5 11 8 20 4 8 5 9 4 8 4 7 5 7 4 6 4 7 5 5 12 15 5 4 4 5 4 3 5 4 8 6 5 3 8 6 4 2 5 2 8 4 5 2 8 4 5 1 4 2 8 2 5 1 8 2 5 1 8 2 5 1 4 1 4 0 4 1 5 1"/>
<path stroke="#F0E68C" d="M318 657l4 0 4 1 5 0 4 1 4 0 5 1 8 0 4 1 9 0 4 1 18 0 4 1 21 0 5 1 38 0 5 1 163 0 4 1 310 0 3 -8"/>
<path stroke="#DDA0DD" d="M80 71l43 0"/>
<text stroke="none" fill="white" font-size="16" x="133" y="80">
out
</text>
<path stroke="#DDA0DD" d="M80 358l0 -1M80 358l1 1 0 -1 2 -4 3 2 4 17 4 16 4 15 5 14 4 14 4 12 5 13 8 22 5 10 4 10 8 18 5 8 4 7 4 8 5 7 8 12 5 6 4 6 8 10 5 4 4 5 4 4 5 4 4 4 4 3 5 3 12 9 5 3 4 2 4 3 5 2 8 4 5 2 4 2 4 1 4 2 5 2 8 2 5 2 8 2 5 1"/>
<path stroke="#DDA0DD" d="M301 647l12 3 5 1 4 1 4 0 5 1 4 1 4 0 5 1 4 1 4 0 4 1 5 0 4 1 9 0 4 1 4 0 5 1 12 0 5 1 8 0 5 1 17 0 4 1 26 0 4 1 48 0 4 1 193 0 5 1 219 0 3 -7"/>
<path stroke="#DA70D6" d="M430 87l43 0"/>
<text stroke="none" fill="white" font-size="16" x="483" y="96">
out
</text>
<path stroke="#DA70D6" d="M80 358l1 1 0 -1 2 -4 3 2 4 15 4 14 4 13 5 13 8 24 5 11 4 11 4 10 5 9 8 18 4 8 5 8 4 8 4 7 5 7 8 12 5 6 4 6 8 10 9 9 4 5 5 4 4 4 4 3 5 4 4 3 4 4 4 3 5 3 4 2 4 3 5 3 8 4 5 2 4 3 4 1 4 2 5 2 4 2 4 1 5 2 4 1 4 2 5 1 4 1"/>
<path stroke="#DA70D6" d="M305 640l4 2 4 1 5 1 8 2 5 1 8 2 5 0 12 3 5 0 8 2 5 0 4 1 4 0 5 1 4 0 4 1 4 0 5 1 8 0 5 1 8 0 5 1 12 0 5 1 13 0 4 1 21 0 5 1 30 0 4 1 52 0 4 1 224 0 4 1 129 0 3 -6"/>
<path stroke="#EE82EE" d="M80 87l43 0"/>
<text stroke="none" fill="white" font-size="16" x="133" y="96">
out
</text>
<path stroke="#EE82EE" d="M80 358l1 1 0 -1 2 -3 3 1 8 26 4 12 5 12 8 22 5 10 4 10 4 9 5 9 4 8 4 9 4 7 5 8 8 14 5 7 8 12 5 6 4 5 4 6 4 5 5 4 4 5 17 17 5 3 4 4 4 3 4 4 5 3 8 6 5 2 8 6 5 2 8 4 4 3 5 2 4 1 4 2 5 2 4 2 4 1 5 2 4 1 4 2 4 1 5 2 8 2"/>
<path stroke="#EE82EE" d="M326 639l5 1 8 2 5 1 12 3 5 1 4 1 4 0 5 1 8 2 5 0 4 1 4 0 4 1 5 0 4 1 4 0 5 1 4 0 4 1 5 0 4 1 8 0 5 1 8 0 5 1 8 0 5 1 12 0 5 1 17 0 4 1 26 0 4 1 35 0 4 1 60 0 5 1 249 0 4 1 39 0 3 -5"/>
<path stroke="#B03060" d="M430 103l43 0"/>
<text stroke="none" fill="white" font-size="16" x="483" y="112">
out
</text>
<path stroke="#B03060" d="M80 358l1 1 0 -1 2 -3 3 1 8 24 4 11 5 10 4 11 4 9 5 10 8 18 5 8 8 16 4 7 5 7 8 14 5 6 8 12 5 6 4 5 4 6 4 5 5 4 8 10 5 4 8 8 5 4 4 3 4 4 4 3 5 4 8 6 5 3 4 2 4 3 5 3 4 2 4 3 4 2 5 2 8 4 5 2 8 4 5 1 8 4 4 1 5 2 4 1 4 2"/>
<path stroke="#B03060" d="M326 632l5 1 8 2 5 2 12 3 5 1 8 2 5 1 4 0 4 1 5 1 4 1 4 0 4 1 5 1 4 0 4 1 5 1 4 0 4 1 5 0 4 1 4 0 4 1 5 0 4 1 4 0 5 1 8 0 5 1 8 0 4 1 9 0 4 1 13 0 5 1 17 0 4 1 17 0 5 1 25 0 5 1 38 0 5 1 68 0 5 1 232 0 3 -4"/>
<path stroke="#40E0D0" d="M80 103l43 0"/>
<text stroke="none" fill="white" font-size="16" x="133" y="112">
out
</text>
<path stroke="#40E0D0" d="M80 358l1 0 2 -3 3 2 4 10 4 11 4 10 5 10 8 18 5 9 4 8 4 9 5 8 8 14 4 8 5 6 4 7 4 6 5 6 8 12 5 6 12 15 9 9 4 5 5 4 8 8 5 4 4 4 4 3 4 4 5 3 8 6 5 3 8 6 5 3 4 2 4 3 4 2 5 3 8 4 5 2 8 4 5 2 8 4 4 1 5 2 4 2 4 1 5 1 4 2 4 1"/>
<path stroke="#40E0D0" d="M339 628l5 2 12 3 5 1 4 1 4 2 5 1 4 1 4 0 5 1 12 3 5 1 4 1 4 0 5 1 4 1 4 0 5 1 4 1 4 0 4 1 5 0 4 1 4 0 5 1 4 0 4 1 5 0 4 1 4 0 4 1 9 0 4 1 9 0 4 1 9 0 4 1 13 0 4 1 13 0 5 1 17 0 4 1 22 0 4 1 30 0 4 1 43 0 5 1 73 0 4 1"/>
<path stroke="#40E0D0" d="M765 665l172 0 3 -4"/>
<path stroke="#A0522D" d="M430 119l43 0"/>
<text stroke="none" fill="white" font-size="16" x="483" y="128">
out
</text>
<path stroke="#A0522D" d="M80 358l1 0 2 -3 3 2 4 10 4 9 4 10 5 9 4 8 4 9 5 8 8 16 5 7 12 21 5 6 4 7 4 6 5 6 4 6 4 5 5 5 4 6 4 5 9 9 4 5 4 4 5 4 8 8 5 4 8 8 4 3 5 3 4 4 4 3 5 3 8 6 5 3 4 2 4 3 4 2 5 3 8 4 5 3 8 4 5 2 8 4 4 1 5 2 4 2 4 1 5 2 4 2"/>
<path stroke="#A0522D" d="M335 620l4 1 5 2 8 2 4 2 5 1 8 2 5 1 4 1 4 2 5 1 8 2 4 0 5 1 8 2 5 1 8 2 5 0 8 2 4 0 5 1 4 1 4 0 5 1 4 0 4 1 5 1 4 0 4 1 9 0 4 1 4 0 5 1 4 0 4 1 9 0 4 1 9 0 4 1 9 0 4 1 9 0 4 1 13 0 4 1 17 0 5 1 21 0 4 1 22 0 4 1 35 0"/>
<path stroke="#A0522D" d="M688 662l4 1 47 0 4 1 82 0 4 1 108 0 3 -3"/>
<path stroke="#FF7F50" d="M80 119l43 0"/>
<text stroke="none" fill="white" font-size="16" x="133" y="128">
out
</text>
<path stroke="#FF7F50" d="M80 358l1 0 2 -2 3 1 12 27 5 8 8 16 5 8 8 14 5 7 8 14 4 6 5 7 4 6 4 5 5 6 4 6 4 5 5 5 12 15 5 4 4 5 4 4 5 4 8 8 5 4 8 8 4 3 5 3 4 4 4 3 5 3 8 6 5 3 4 2 8 6 5 2 4 3 4 2 5 2 4 3 4 2 5 2 12 6 5 2 4 1 4 2 5 2 4 1 4 2 5 1"/>
<path stroke="#FF7F50" d="M344 615l4 2 4 1 4 2 5 1 4 2 4 1 5 1 8 2 5 2 12 3 5 1 8 2 5 1 4 1 4 0 5 1 12 3 5 0 8 2 5 0 8 2 5 0 8 2 4 0 5 1 4 0 4 1 5 0 4 1 4 0 5 1 4 0 4 1 9 0 4 1 4 0 5 1 8 0 5 1 8 0 4 1 13 0 5 1 13 0 4 1 13 0 4 1 17 0 5 1 21 0"/>
<path stroke="#FF7F50" d="M666 660l4 1 26 0 4 1 35 0 4 1 52 0 4 1 90 0 5 1 47 0 3 -3"/>
<path stroke="cyan" d="M430 135l43 0"/>
<text stroke="none" fill="white" font-size="16" x="483" y="144">
out
</text>
<path stroke="cyan" d="M80 358l1 0 2 -2 3 1 4 8 4 9 4 8 5 8 4 7 4 8 5 7 8 14 5 7 12 18 5 6 8 12 5 5 4 6 4 5 5 5 4 5 4 4 4 5 5 4 4 5 4 4 5 4 8 8 5 4 4 4 4 3 4 4 5 3 4 3 4 4 5 3 8 6 5 2 12 9 5 2 4 3 4 2 5 2 4 3 4 2 5 2 12 6 5 2 8 4 5 2 4 1 4 2"/>
<path stroke="cyan" d="M339 607l5 2 4 1 4 2 4 1 5 2 8 2 5 2 8 2 5 2 12 3 5 1 8 2 5 1 8 2 5 1 12 3 5 1 4 0 4 1 5 1 4 1 4 0 5 1 4 1 4 0 4 1 5 1 4 0 4 1 5 0 8 2 5 0 4 1 4 0 4 1 5 0 4 1 9 0 4 1 4 0 5 1 8 0 4 1 9 0 4 1 9 0 4 1 9 0 4 1 13 0 4 1 13 0"/>
<path stroke="cyan" d="M640 657l5 1 17 0 4 1 17 0 5 1 21 0 4 1 30 0 5 1 38 0 5 1 56 0 4 1 86 0 3 -3"/>
<path stroke="magenta" d="M80 135l43 0"/>
<text stroke="none" fill="white" font-size="16" x="133" y="144">
out
</text>
<path stroke="magenta" d="M80 358l1 0 2 -2 3 1 8 16 4 7 5 8 8 14 5 7 4 6 4 7 5 6 12 18 5 6 4 5 4 6 5 5 8 10 5 5 4 5 4 4 4 5 5 4 4 5 4 4 5 4 4 4 4 3 5 4 4 4 4 3 4 4 5 3 4 4 4 3 5 3 8 6 5 3 4 2 8 6 5 2 4 3 4 2 5 3 8 4 5 3 12 6 5 2 8 4 5 2 4 1 4 2"/>
<path stroke="magenta" d="M339 600l5 2 4 1 8 4 5 1 4 2 4 1 5 1 4 2 4 1 5 2 12 3 5 1 4 2 4 1 5 1 8 2 5 1 12 3 5 1 4 1 4 0 5 1 8 2 5 1 4 0 8 2 5 0 8 2 5 0 8 2 5 0 4 1 4 0 4 1 5 1 4 0 4 1 5 0 4 1 9 0 4 1 4 0 4 1 5 0 4 1 9 0 4 1 9 0 4 1 8 0 5 1 8 0"/>
<path stroke="magenta" d="M627 654l5 1 13 0 4 1 13 0 4 1 13 0 4 1 17 0 5 1 21 0 5 1 25 0 5 1 30 0 4 1 43 0 4 1 61 0 4 1 30 0 3 -3"/>
<path stroke="#666" d="M430 151l43 0"/>
<text stroke="none" fill="white" font-size="16" x="483" y="160">
out
</text>
<path stroke="#666" d="M80 358l1 0 2 -2 3 1 4 7 4 8 4 7 5 7 4 7 4 6 5 7 8 12 5 6 12 18 5 5 8 10 5 6 4 4 4 5 5 5 4 5 21 21 5 4 8 8 5 3 4 4 4 3 4 4 5 3 8 6 5 4 4 3 4 2 5 3 12 9 5 2 4 3 4 2 5 3 8 4 5 3 12 6 5 2 8 4 5 2 4 2 4 1 5 2 8 4 4 1 5 2 4 1"/>
<path stroke="#666" d="M365 603l4 2 5 1 4 2 4 1 5 2 12 3 5 2 8 2 5 1 8 2 5 2 12 3 5 1 4 1 4 0 5 1 8 2 5 1 8 2 4 0 5 1 8 2 5 0 8 2 5 0 8 2 4 0 5 1 4 0 4 1 5 0 8 2 5 0 4 1 4 0 4 1 9 0 4 1 5 0 4 1 4 0 5 1 8 0 4 1 9 0 4 1 9 0 4 1 9 0 4 1 13 0 4 1"/>
<path stroke="#666" d="M670 655l9 0 4 1 17 0 5 1 13 0 4 1 21 0 5 1 21 0 5 1 25 0 5 1 34 0 4 1 48 0 4 1 43 0 3 -2"/>
<path stroke="#949494" d="M80 151l43 0"/>
<text stroke="none" fill="white" font-size="16" x="133" y="160">
out
</text>
<path stroke="#949494" d="M80 358l1 0 2 -2 3 1 12 21 5 6 4 7 4 6 5 6 8 12 5 6 4 5 4 6 4 5 5 6 8 10 9 9 4 5 5 4 4 5 4 4 4 5 5 4 8 8 5 4 4 3 4 4 5 4 4 3 4 4 4 3 5 3 4 4 4 3 5 3 8 6 5 3 4 2 8 6 5 2 4 3 4 2 5 3 4 2 4 3 5 2 12 6 5 2 8 4 5 2 8 4 5 2"/>
<path stroke="#949494" d="M344 589l4 2 4 1 4 2 5 2 4 1 4 2 5 1 4 2 4 1 5 2 8 2 4 2 5 1 4 1 4 2 5 1 8 2 5 1 8 2 4 2 5 1 8 2 5 1 4 0 4 1 5 1 12 3 5 1 4 0 4 1 5 1 4 1 4 0 5 1 8 2 4 0 5 1 4 1 4 0 5 1 4 0 4 1 5 0 8 2 4 0 5 1 4 0 4 1 5 0 4 1 9 0 4 1"/>
<path stroke="#949494" d="M606 647l4 0 4 1 5 0 4 1 9 0 4 1 9 0 4 1 8 0 5 1 8 0 5 1 8 0 5 1 12 0 5 1 13 0 4 1 17 0 4 1 18 0 4 1 17 0 4 1 26 0 5 1 30 0 4 1 34 0 5 1 47 0 3 -2"/>
<path stroke="red" d="M430 167l43 0"/>
<text stroke="none" fill="white" font-size="16" x="483" y="176">
out
</text>
<path stroke="red" d="M80 358l1 0 2 -2 3 1 4 7 4 6 4 7 5 6 8 12 5 6 4 6 4 5 5 6 12 15 5 6 4 4 4 5 5 5 4 5 4 4 5 4 4 5 8 8 5 4 8 8 5 4 4 3 4 4 5 4 8 6 4 4 5 3 8 6 5 3 8 6 5 3 8 6 4 2 5 3 4 2 4 3 5 2 4 3 4 2 5 2 4 3 8 4 5 2 8 4 5 2 8 4 5 2 4 1"/>
<path stroke="red" d="M348 584l8 4 5 2 4 1 4 2 5 1 4 2 4 1 5 2 4 1 4 2 4 1 5 2 8 2 5 1 4 2 4 1 5 1 12 3 5 2 8 2 5 1 8 2 5 1 4 1 4 0 4 1 5 1 8 2 5 1 4 0 4 1 5 1 8 2 4 0 5 1 4 1 4 0 5 1 4 1 4 0 5 1 4 0 8 2 5 0 4 1 4 0 5 1 4 0 4 1 5 0 4 1 4 0 4 1"/>
<path stroke="red" d="M614 645l5 0 4 1 9 0 4 1 4 0 5 1 8 0 4 1 5 0 4 1 9 0 4 1 9 0 4 1 13 0 4 1 9 0 4 1 13 0 4 1 17 0 5 1 17 0 4 1 17 0 5 1 21 0 4 1 26 0 5 1 30 0 4 1 39 0 4 1 3 -3"/>
<path stroke="blue" d="M80 167l43 0"/>
<text stroke="none" fill="white" font-size="16" x="133" y="176">
out
</text>
<path stroke="blue" d="M80 358l1 0 2 -2 3 1 4 6 4 7 4 6 5 6 4 5 4 6 5 6 4 5 4 6 5 5 12 15 5 5 4 5 13 13 4 5 5 4 12 12 5 4 8 8 5 3 8 8 5 3 4 3 4 4 4 3 5 3 8 6 5 3 8 6 5 3 8 6 4 2 5 3 4 2 4 3 5 2 4 3 4 2 5 2 4 2 4 3 4 2 5 2 8 4 5 2 8 4 5 2 4 2"/>
<path stroke="blue" d="M348 579l4 1 4 2 5 2 4 1 4 2 5 2 4 1 4 2 5 1 4 2 4 1 4 2 5 1 4 1 4 2 5 1 4 1 4 2 5 1 12 3 5 2 8 2 5 1 8 2 5 1 12 3 5 1 4 1 4 0 5 1 8 2 5 1 4 1 4 0 4 1 5 1 4 1 4 0 5 1 4 1 4 0 5 1 4 1 4 0 4 1 5 1 4 0 4 1 5 0 4 1 4 0 5 1"/>
<path stroke="blue" d="M602 640l4 1 4 0 4 1 5 0 4 1 9 0 4 1 4 0 5 1 4 0 4 1 9 0 4 1 4 0 5 1 8 0 5 1 8 0 4 1 9 0 4 1 9 0 4 1 13 0 4 1 13 0 5 1 13 0 4 1 13 0 4 1 17 0 5 1 21 0 4 1 22 0 4 1 30 0 5 1 30 0 4 1 3 -3"/>
</svg>
